<svg xmlns="http://www.w3.org/2000/svg" viewBox="0 0 127.88 40"><defs><style>.cls-1{fill:#fff;}</style></defs><g id="Layer_2" data-name="Layer 2"><g id="DESIGN"><path class="cls-1" d="M63.55,9.44v8.29H60.68V4.42H64.4l3.46,8.14,3.61-8.14h3.35V17.73H72V9.44L69,15.9H66.45Zm14.68-5h3V17.73h-3Zm6.39,0h3V15.14h5.5v2.59H84.62Zm10.43,0h3V15.14h5.5v2.59H95.05Zm17.83,11h-4.57l-.72,2.34h-3.13l4.6-13.31h3.17l4.6,13.31H113.6ZM110.58,8l-1.49,4.77h3ZM121,7.92c0,.76.4,1,1.52,1.45l1.36.53c2.68,1,3.46,2,3.46,4.06,0,2.55-1.46,4-4.65,4-2.87,0-4.72-1.18-5.06-4.14h2.93c.26,1.15.74,1.55,2.11,1.55,1.2,0,1.63-.38,1.63-1.21s-.4-1.18-1.76-1.7L121.33,12c-2.41-.89-3.34-1.86-3.34-4s1.44-3.79,4.46-3.79,4.54,1.62,4.64,4.15h-2.93c-.11-1-.53-1.56-1.71-1.56S121,7.26,121,7.92ZM69,31.77H63.46l-1.23,3.34H60.72L65.5,22.25H67l4.74,12.86H70.18ZM66.2,24l-2.35,6.51h4.7Zm7,6.56v-3.8c0-3.11,1.88-4.72,4.82-4.72,2.68,0,4.15,1.39,4.37,3.71H81c-.24-1.67-1.17-2.46-3-2.46-2.2,0-3.27,1.36-3.27,3.47v3.82c0,2.08,1.07,3.44,3.35,3.44s3-1.25,3-3.16v-1h-3.2V28.68h4.56v2c0,3.17-1.42,4.62-4.43,4.62S73.16,33.7,73.16,30.59ZM85.1,22.25h8.09V23.5H86.54v4.34h5.53v1.23H86.54v4.79h6.65v1.25H85.1Zm11.75,2.19V35.11h-1.4V22.25h1.71l6,10.69V22.25h1.41V35.11h-1.71Zm10.6,6.15v-3.8c0-3.11,1.87-4.72,4.72-4.72a4.18,4.18,0,0,1,4.48,4.17h-1.39c-.22-1.84-1.18-2.92-3.07-2.92-2.21,0-3.27,1.36-3.27,3.47v3.82c0,2.08,1.06,3.44,3.23,3.44a2.8,2.8,0,0,0,3.11-2.93h1.39a4.07,4.07,0,0,1-4.44,4.17C109.3,35.29,107.45,33.7,107.45,30.59ZM122,35.11V30l-4.43-7.7h1.62l3.56,6.34,3.57-6.34h1.54L123.45,30v5.14ZM22.46,18.87a11.49,11.49,0,0,1-1.15,1.36h0l-.25.24L19.52,22A8.43,8.43,0,1,1,4.35,27.09,8.36,8.36,0,0,1,6.05,22L4.46,20.44l-.12-.12a12.09,12.09,0,0,1-1.23-1.45,12.78,12.78,0,1,0,19.35,0ZM12.78,0A11.91,11.91,0,0,0,4.34,20.32l.12.12,8.32,8.27,8.28-8.23.25-.24h0A11.91,11.91,0,0,0,12.78,0Zm0,22.37L10.7,20.29,8.12,17.71A7.17,7.17,0,0,1,7,16.57H7a7.44,7.44,0,1,1,11.6,0h0a7.68,7.68,0,0,1-1.14,1.14l-2.56,2.56ZM40.88,0H39.25C33.47,0,28.38,5.32,28.38,10.49v3.25c0,4.09,3.18,8.25,7.38,9.79a10,10,0,0,0,3.45.63h1.07a8.79,8.79,0,0,0,3.95-.95,10.54,10.54,0,0,0,2.58-1.82v6s0,.31,0,.8c0,2.1-.67,7.57-6.24,7.57h-1a6.13,6.13,0,0,1-6.28-6.44v-.08H28.64c0,7,4.64,10.73,11.54,10.73,7.46,0,11.53-5,11.53-11.77V10.49C51.71,5.32,46.66,0,40.88,0Zm-.3,19.92h-1c-3.35,0-6.28-3.41-6.28-6.76V11c0-3.35,2.95-6.81,6.3-6.81h1c3.35,0,6.28,3.46,6.28,6.81v2.12C46.81,16.51,43.93,19.92,40.58,19.92Z"/></g></g></svg>