<svg xmlns="http://www.w3.org/2000/svg" viewBox="0 0 70 66.3"><defs><style>.cls-1{fill:#00354f;}.cls-2{fill:#c4242e;}</style></defs><g id="Layer_2" data-name="Layer 2"><g id="DESIGN"><path class="cls-1" d="M36.59,23.11A7.19,7.19,0,1,1,24,18.41a6.88,6.88,0,0,0,.7.82l.06.06.9.89a4.74,4.74,0,1,0,7.57,0l.87-.86.14-.14h0a6.7,6.7,0,0,0,.64-.77A7.15,7.15,0,0,1,36.59,23.11Z"/><path class="cls-2" d="M29.4,7.8a6.7,6.7,0,0,0-4.74,11.43l.06.06,4.68,4.65,4.66-4.62.14-.14h0A6.7,6.7,0,0,0,29.4,7.8Zm0,12.58-1.17-1.17-1.45-1.45a4.84,4.84,0,0,1-.64-.64h0a4.18,4.18,0,1,1,7.44-2.62,4.16,4.16,0,0,1-.92,2.62h0a4.3,4.3,0,0,1-.64.64L30.58,19.2Z"/><path class="cls-1" d="M45.36,7.92h-.89a6.18,6.18,0,0,0-5.95,5.74v1.78a6.1,6.1,0,0,0,4,5.36,5.5,5.5,0,0,0,1.89.34H45a4.88,4.88,0,0,0,2.17-.51,5.9,5.9,0,0,0,1.41-1v3.31s0,.17,0,.44c0,1.14-.37,4.14-3.42,4.14h-.56A3.36,3.36,0,0,1,41.2,24v0H38.67c0,3.81,2.53,5.88,6.31,5.88,4.08,0,6.31-2.73,6.31-6.44V13.66A6.16,6.16,0,0,0,45.36,7.92ZM45.2,18.83h-.56a3.78,3.78,0,0,1-3.44-3.71V14a3.8,3.8,0,0,1,3.45-3.73h.52A3.8,3.8,0,0,1,48.61,14v1.15A3.75,3.75,0,0,1,45.2,18.83Z"/><path class="cls-2" d="M69.93,30.85a33.34,33.34,0,0,0-3-11.76A33.39,33.39,0,0,0,55.06,5.41,33,33,0,0,0,43.87.73a32.25,32.25,0,0,0-6-.72,33.41,33.41,0,0,0-12,2A34.21,34.21,0,0,0,15.33,8l-.57.5-.29.25L14.19,9l-.14.13-.14.13-.27.26-.28.27a3.31,3.31,0,0,0-.26.27,29.09,29.09,0,0,0-2,2.26q-1,1.19-1.8,2.46c-.55.84-1.07,1.72-1.54,2.62l.14.07a29.6,29.6,0,0,1,1.54-2.6c.56-.84,1.16-1.66,1.8-2.44s1.31-1.53,2-2.25l.27-.26.27-.27L14,9.35l.14-.13.14-.12.28-.26.28-.25.58-.49A33.89,33.89,0,0,1,25.94,2.17,33.14,33.14,0,0,1,37.82.27a27.53,27.53,0,0,1,3,.23c1,.12,2,.29,3,.5a32.42,32.42,0,0,1,5.76,1.83,32.81,32.81,0,0,1,17,16.42,31.72,31.72,0,0,1,2,5.68,32.36,32.36,0,0,1,1,5.95c.06,1,.08,2,0,3s-.1,2-.22,3A32.67,32.67,0,0,1,53.41,61.23a32.42,32.42,0,0,1-17.26,4.48c-1,0-2-.1-3-.21s-2-.28-3-.48A32.55,32.55,0,0,1,4.4,30.24l1.14.22a.06.06,0,0,0,.07-.05v-.09A.35.35,0,0,0,5.55,30c-.15-.19-.31-.38-.46-.58a.25.25,0,0,1,0-.22c.13-.81.29-1.61.46-2.4a.13.13,0,0,1,.2-.08c1,.7,1.92,1.36,2.9,2a.19.19,0,0,0,.29-.13c0-.26.11-.53.16-.79A.43.43,0,0,0,9,27.44C8.05,26.36,7.17,25.22,6.34,24a.33.33,0,0,1,0-.29c.32-1.09.67-2.16,1-3.2a.92.92,0,0,0-.42-1.15.83.83,0,0,0-1.14.49C5.39,21,5,22,4.7,23.15a.33.33,0,0,1-.2.23c-1.34.53-2.68,1.11-4,1.73a.48.48,0,0,0-.26.35c-.08.34-.16.68-.23,1,0,.1.05.2.14.18l3.59-.47a.14.14,0,0,1,.14.18c-.18.81-.34,1.63-.49,2.46a.27.27,0,0,1-.11.19l-.53.35a.36.36,0,0,0-.15.24l0,.16a.08.08,0,0,0,.05.09l1,.22A33.34,33.34,0,0,0,18.78,61a33.11,33.11,0,0,0,11.28,4.61q1.5.3,3,.48c1,.11,2,.18,3,.2a33.1,33.1,0,0,0,17.54-4.61,33.28,33.28,0,0,0,9.17-8,32.53,32.53,0,0,0,3.34-5.11,34.18,34.18,0,0,0,2.33-5.64,32.94,32.94,0,0,0,1.25-6c.12-1,.19-2,.22-3S70,31.87,69.93,30.85Z"/><path class="cls-1" d="M23.18,58.27l1-6.67h1.11l1.07,6.67h-.83L25.33,57H24.18L24,58.27Zm1.09-2h1l-.49-3.45h0Z"/><path class="cls-1" d="M29.71,58.33a1.07,1.07,0,0,1-.92-.47,2.73,2.73,0,0,1-.34-1.56V53.45a3.87,3.87,0,0,1,.07-.79,1.77,1.77,0,0,1,.24-.61,1,1,0,0,1,.44-.39,1.72,1.72,0,0,1,1.36,0,.94.94,0,0,1,.4.39,1.81,1.81,0,0,1,.18.62,6.51,6.51,0,0,1,.05.81V54h-.84v-.8a1.87,1.87,0,0,0-.09-.68.37.37,0,0,0-.38-.22.44.44,0,0,0-.43.25,2.34,2.34,0,0,0-.12.9v2.84a3.94,3.94,0,0,0,.1,1,.45.45,0,0,0,.85,0,3.11,3.11,0,0,0,.12-1v-.88h-.53v-.66h1.32v3.56h-.43l-.13-.58a.85.85,0,0,1-.34.48A1,1,0,0,1,29.71,58.33Z"/><path class="cls-1" d="M33.7,58.27V51.6h2.09v.74H34.58v2.14h1.15v.74H34.58v2.3h1.24v.75Z"/><path class="cls-1" d="M38.14,58.27V51.6h.68l1.49,4.31L40.24,54V51.6H41v6.67h-.64l-1.47-4.4L39,55.58v2.69Z"/><path class="cls-1" d="M44.88,58.35a1.17,1.17,0,0,1-1.23-.91,3.8,3.8,0,0,1-.14-1.09V53.52a5.17,5.17,0,0,1,.06-.82,2,2,0,0,1,.23-.63,1,1,0,0,1,.42-.4,1.41,1.41,0,0,1,.69-.15,1.52,1.52,0,0,1,.64.13A1,1,0,0,1,46,52a1.72,1.72,0,0,1,.21.59,3.57,3.57,0,0,1,.07.76v.81h-.86V53.4a2.92,2.92,0,0,0-.09-.84.35.35,0,0,0-.37-.28.4.4,0,0,0-.41.29,2.51,2.51,0,0,0-.11.83v3a6.16,6.16,0,0,0,0,.7.79.79,0,0,0,.15.39.39.39,0,0,0,.31.12.37.37,0,0,0,.38-.28,3,3,0,0,0,.1-.93v-.83h.87v.81a3.81,3.81,0,0,1-.13,1.1,1.25,1.25,0,0,1-.43.67A1.36,1.36,0,0,1,44.88,58.35Z"/><path class="cls-1" d="M49.34,58.27V55.52L48.2,51.6h.85l.73,2.62h0l.63-2.62h.86l-1.07,3.92v2.75Z"/><path class="cls-1" d="M12.52,47.9V34.07h2.19l2.06,10.66,1.95-10.66h2.19V47.9H19.33V42.7l.11-5-2,10.16H16.07L14,37.72l.11,5v5.2Z"/><path class="cls-1" d="M25.18,47.9V34.07H27V47.9Z"/><path class="cls-1" d="M31.27,47.9V34.07h1.82v12.3h2.6V47.9Z"/><path class="cls-1" d="M39,47.9V34.07H40.8v12.3h2.6V47.9Z"/><path class="cls-1" d="M45.92,47.9l2-13.83h2.3L52.47,47.9H50.76l-.37-2.57H48l-.34,2.57Zm2.27-4h2l-1-7.16h0Z"/><path class="cls-1" d="M58.28,48.06a3,3,0,0,1-1.39-.29,2.15,2.15,0,0,1-.85-.84,3.7,3.7,0,0,1-.43-1.29A10.92,10.92,0,0,1,55.49,44v-1.3h1.76v1.4a6.06,6.06,0,0,0,.2,1.88.8.8,0,0,0,.83.56.94.94,0,0,0,.65-.2,1.12,1.12,0,0,0,.27-.65,9.15,9.15,0,0,0,.07-1.19,3.34,3.34,0,0,0-.33-1.52A5.69,5.69,0,0,0,58,41.62l-1-1a9.59,9.59,0,0,1-.77-.9,4.57,4.57,0,0,1-.59-1.09,4,4,0,0,1-.23-1.38,6.13,6.13,0,0,1,.24-1.82,2.19,2.19,0,0,1,.85-1.17,3,3,0,0,1,1.68-.4,2.81,2.81,0,0,1,1.36.28,1.87,1.87,0,0,1,.8.8,3.85,3.85,0,0,1,.37,1.24,11.35,11.35,0,0,1,.1,1.62v.83H59.13v-1a10.94,10.94,0,0,0-.06-1.26,1.64,1.64,0,0,0-.27-.75.73.73,0,0,0-.59-.25.92.92,0,0,0-.59.18.87.87,0,0,0-.33.53,3.25,3.25,0,0,0-.11.92,2.32,2.32,0,0,0,.13.84,2.09,2.09,0,0,0,.37.64q.26.3.63.69l1,1.1a7.05,7.05,0,0,1,1.24,1.78A4.82,4.82,0,0,1,61,44.32a7.31,7.31,0,0,1-.24,2A2.39,2.39,0,0,1,60,47.62,2.82,2.82,0,0,1,58.28,48.06Z"/></g></g></svg>