<svg xmlns="http://www.w3.org/2000/svg" viewBox="0 0 76.64 72.59"><defs><style>.cls-1{fill:#fff;}.cls-2{fill:#c4242e;}</style></defs><g id="Layer_2" data-name="Layer 2"><g id="DESIGN"><path class="cls-1" d="M40.06,25.3a7.87,7.87,0,0,1-15.74,0,7.79,7.79,0,0,1,1.92-5.14,6.49,6.49,0,0,0,.76.89l.07.07,1,1A5.12,5.12,0,0,0,27,25.22a5.19,5.19,0,1,0,9.34-3.13l.95-.94.15-.15h0a9.29,9.29,0,0,0,.71-.84A7.83,7.83,0,0,1,40.06,25.3Z"/><path class="cls-2" d="M32.19,8.54A7.33,7.33,0,0,0,27,21.05l.07.07,5.12,5.09,5.1-5.06.15-.15h0A7.33,7.33,0,0,0,32.19,8.54Zm0,13.77L30.91,21l-1.59-1.59a4.63,4.63,0,0,1-.7-.7h0a4.58,4.58,0,1,1,7.14,0h0a4.21,4.21,0,0,1-.7.7L33.49,21Z"/><path class="cls-1" d="M49.66,8.68h-1A6.77,6.77,0,0,0,42.17,15v1.95a6.7,6.7,0,0,0,4.43,5.87,6,6,0,0,0,2.07.37h.63a5.26,5.26,0,0,0,2.38-.57,6.46,6.46,0,0,0,1.54-1.08v3.61s0,.19,0,.48c0,1.26-.41,4.54-3.74,4.54h-.62a3.68,3.68,0,0,1-3.76-3.86v-.05H42.33c0,4.17,2.78,6.44,6.91,6.44,4.48,0,6.92-3,6.92-7.06V15A6.74,6.74,0,0,0,49.66,8.68Zm-.17,11.93h-.62a4.12,4.12,0,0,1-3.76-4.05V15.29a4.16,4.16,0,0,1,3.78-4.08h.56a4.15,4.15,0,0,1,3.77,4.08v1.27A4.09,4.09,0,0,1,49.49,20.61Z"/><path class="cls-2" d="M76.56,33.78A36.23,36.23,0,0,0,65.5,10.09a36.1,36.1,0,0,0-5.22-4.16A35.69,35.69,0,0,0,54.4,2.79,36.46,36.46,0,0,0,48,.8,35,35,0,0,0,41.42,0a36.71,36.71,0,0,0-13.1,2.13A37.42,37.42,0,0,0,16.79,8.71l-.63.54-.32.28-.3.28-.16.14-.15.14-.3.29-.3.29-.29.3a32.84,32.84,0,0,0-2.23,2.48c-.7.86-1.36,1.76-2,2.68S9,18,8.45,19l.15.08c.52-1,1.08-1.93,1.69-2.85a32.06,32.06,0,0,1,2-2.66,32.41,32.41,0,0,1,2.22-2.46l.29-.3.3-.29.3-.28.15-.14.15-.14L16,9.68l.31-.27.63-.54A37.18,37.18,0,0,1,28.4,2.38,36.22,36.22,0,0,1,41.41.3c1.1,0,2.2.11,3.3.24S46.89.86,48,1.1a36.31,36.31,0,0,1,6.3,2,35.84,35.84,0,0,1,5.82,3.13,34.72,34.72,0,0,1,5.15,4.14,35.72,35.72,0,0,1,9.84,16.93,35,35,0,0,1,1,6.52q.11,1.65.06,3.3a32.88,32.88,0,0,1-.25,3.29A35.54,35.54,0,0,1,72,52.94a35.79,35.79,0,0,1-3.61,5.51A36.27,36.27,0,0,1,58.48,67a35.58,35.58,0,0,1-18.9,4.9,32.65,32.65,0,0,1-3.28-.23c-1.09-.12-2.18-.3-3.25-.52A35.69,35.69,0,0,1,4.81,33.11l1.26.24a.06.06,0,0,0,.07-.06l0-.09a.48.48,0,0,0-.08-.31l-.5-.63A.32.32,0,0,1,5.51,32c.15-.88.32-1.76.51-2.62a.14.14,0,0,1,.22-.09c1,.77,2.11,1.49,3.18,2.17a.21.21,0,0,0,.31-.14l.18-.87a.53.53,0,0,0-.1-.42q-1.5-1.77-2.87-3.74A.4.4,0,0,1,6.89,26c.34-1.19.73-2.36,1.15-3.51a1,1,0,0,0-.47-1.25.9.9,0,0,0-1.24.54c-.43,1.17-.83,2.37-1.18,3.59a.4.4,0,0,1-.22.24q-2.2.89-4.4,1.9a.56.56,0,0,0-.28.38C.16,28.25.08,28.62,0,29c0,.11.06.22.16.2q2-.27,3.93-.51a.16.16,0,0,1,.15.19c-.2.89-.38,1.79-.53,2.7a.32.32,0,0,1-.13.2L3,32.17a.38.38,0,0,0-.16.26l0,.18a.09.09,0,0,0,.06.09L4,32.94A36.47,36.47,0,0,0,20.56,66.78a35.31,35.31,0,0,0,5.94,3.1,35.91,35.91,0,0,0,6.41,2c1.1.23,2.2.4,3.31.52s2.23.2,3.35.23a36.36,36.36,0,0,0,29.24-13.8,35.73,35.73,0,0,0,3.65-5.61,35.82,35.82,0,0,0,3.93-12.71c.13-1.11.21-2.22.24-3.34S76.63,34.89,76.56,33.78Z"/><path class="cls-1" d="M25.38,63.79l1.07-7.3h1.22l1.17,7.3h-.91l-.19-1.35H26.47l-.17,1.35Zm1.19-2.13h1.05l-.54-3.78h0Z"/><path class="cls-1" d="M32.53,63.86a1.16,1.16,0,0,1-1-.52,3,3,0,0,1-.37-1.7V58.52a4.6,4.6,0,0,1,.08-.87,1.91,1.91,0,0,1,.26-.67,1.13,1.13,0,0,1,.47-.42,1.67,1.67,0,0,1,.75-.15,1.61,1.61,0,0,1,.75.15,1,1,0,0,1,.43.43,1.88,1.88,0,0,1,.21.68,7.75,7.75,0,0,1,0,.88v.55h-.92v-.87a1.94,1.94,0,0,0-.1-.75.41.41,0,0,0-.42-.24.45.45,0,0,0-.46.28,2.47,2.47,0,0,0-.13,1v3.11a3.68,3.68,0,0,0,.11,1.11.44.44,0,0,0,.46.34.48.48,0,0,0,.47-.34,3.72,3.72,0,0,0,.13-1.13v-1h-.58V59.9h1.44v3.89h-.47l-.14-.62a.94.94,0,0,1-.38.51A1.11,1.11,0,0,1,32.53,63.86Z"/><path class="cls-1" d="M36.89,63.79v-7.3h2.3v.82H37.86v2.34h1.26v.81H37.86V63h1.36v.81Z"/><path class="cls-1" d="M41.76,63.79v-7.3h.75l1.63,4.73-.09-2.07V56.49h.86v7.3h-.69L42.6,59l0,1.87v2.94Z"/><path class="cls-1" d="M49.14,63.88a1.35,1.35,0,0,1-.86-.25,1.41,1.41,0,0,1-.49-.74,4.15,4.15,0,0,1-.15-1.19V58.6a5,5,0,0,1,.07-.9A2.09,2.09,0,0,1,48,57a1.11,1.11,0,0,1,.47-.44,1.54,1.54,0,0,1,.75-.16,1.62,1.62,0,0,1,.7.14,1.18,1.18,0,0,1,.44.42,1.73,1.73,0,0,1,.23.64,4.28,4.28,0,0,1,.07.83v.89h-.94v-.86a3.56,3.56,0,0,0-.09-.93.39.39,0,0,0-.41-.3.43.43,0,0,0-.45.32,2.66,2.66,0,0,0-.12.91v3.26a5.05,5.05,0,0,0,0,.76.82.82,0,0,0,.16.43.45.45,0,0,0,.76-.18,3.58,3.58,0,0,0,.1-1v-.91h.95v.9a4.12,4.12,0,0,1-.14,1.2,1.36,1.36,0,0,1-.46.73A1.46,1.46,0,0,1,49.14,63.88Z"/><path class="cls-1" d="M54,63.79v-3l-1.25-4.3h.94l.79,2.87h0l.69-2.87h.94L55,60.79v3Z"/><path class="cls-1" d="M13.71,52.44V37.3H16.1L18.36,49,20.5,37.3h2.4V52.44H21.16V46.75l.12-5.45L19.1,52.42H17.59L15.32,41.3l.12,5.45v5.69Z"/><path class="cls-1" d="M27.57,52.44V37.3h2V52.44Z"/><path class="cls-1" d="M34.24,52.44V37.3h2V50.76h2.85v1.68Z"/><path class="cls-1" d="M42.68,52.44V37.3h2V50.76h2.85v1.68Z"/><path class="cls-1" d="M50.27,52.44,52.51,37.3H55l2.42,15.14H55.57l-.4-2.81H52.55l-.37,2.81ZM52.76,48h2.17l-1.11-7.83h0Z"/><path class="cls-1" d="M63.81,52.61a3.21,3.21,0,0,1-1.52-.31,2.38,2.38,0,0,1-.94-.92A4,4,0,0,1,60.89,50a11.67,11.67,0,0,1-.13-1.85V46.7h1.92v1.53a6.61,6.61,0,0,0,.22,2.05.87.87,0,0,0,.91.62,1,1,0,0,0,.71-.22,1.27,1.27,0,0,0,.3-.71,10.88,10.88,0,0,0,.07-1.3A3.7,3.7,0,0,0,64.53,47a6.15,6.15,0,0,0-1-1.43l-1.05-1a10,10,0,0,1-.84-1A4.57,4.57,0,0,1,61,42.34a4.23,4.23,0,0,1-.25-1.51,6.47,6.47,0,0,1,.27-2,2.27,2.27,0,0,1,.92-1.28,3.23,3.23,0,0,1,1.84-.45,3.17,3.17,0,0,1,1.49.31,2,2,0,0,1,.87.87,4,4,0,0,1,.41,1.36,11.92,11.92,0,0,1,.12,1.77v.92H64.74v-1a10.59,10.59,0,0,0-.07-1.38,1.79,1.79,0,0,0-.29-.82.78.78,0,0,0-.65-.27,1,1,0,0,0-.65.19,1,1,0,0,0-.36.58,3.93,3.93,0,0,0-.11,1,2.76,2.76,0,0,0,.13.92,2.51,2.51,0,0,0,.41.7c.19.22.42.47.69.76L65,44.19a8,8,0,0,1,1.36,2,5.38,5.38,0,0,1,.51,2.39,7.9,7.9,0,0,1-.27,2.21,2.47,2.47,0,0,1-.92,1.39A3,3,0,0,1,63.81,52.61Z"/></g></g></svg>